<svg width="135" height="167" viewBox="0 0 135 167" fill="none" xmlns="http://www.w3.org/2000/svg">
<path d="M32.4337 99.9902C34.064 97.4954 42.432 85.477 58.7022 74.9845L69.6945 47.5833L76.9537 65.6793C81.2066 64.0247 85.7826 62.5704 90.6932 61.4012L76.465 28.5396H62.9256L31.7859 100.459H32.6912C32.4485 100.459 32.3042 100.194 32.4354 99.9919L32.4337 99.9902Z" fill="#1A2E46"/>
<path d="M48.3447 100.459H48.4825L48.5005 100.414C48.453 100.441 48.4005 100.459 48.3447 100.459Z" fill="#20AEE4"/>
<path d="M96.1729 74.4341C91.0278 80.1762 87.1718 86.3482 86.1664 87.7504C86.0664 87.8888 85.8515 87.8627 85.7892 87.7031L90.9064 100.459H107.605L96.1746 74.4341H96.1729Z" fill="#1A2E46"/>
<path d="M113.378 58.991C109.778 60.0625 102.333 62.5362 93.1157 67.0016C89.1154 68.9395 84.7838 71.2536 80.2865 73.9895C69.8946 80.3146 58.6268 88.9034 48.5728 100.353C48.5154 100.419 48.4317 100.458 48.3432 100.458H32.688C32.4453 100.458 32.3009 100.192 32.4321 99.9902C35.3614 95.507 60.0554 60.2563 113.278 58.3982C113.636 58.3852 113.721 58.8884 113.378 58.991V58.991Z" fill="#20AEE4"/>
<path d="M106.57 64.7462C101.195 67.0114 86.1697 73.4798 81.474 76.9518L85.9253 88.0468C86.5273 87.5713 95.9663 71.6054 106.783 65.1158C107.003 64.9839 106.806 64.6452 106.57 64.7445V64.7462Z" fill="#20AEE4"/>
<path d="M129.875 39.532C126.591 31.8243 121.89 24.9015 115.905 18.9574C109.919 13.0134 102.948 8.34772 95.1855 5.08745C87.1456 1.71156 78.6086 0 69.8093 0C61.0099 0 52.4714 1.71156 44.433 5.08745C36.6702 8.34772 29.698 13.015 23.7131 18.9574C17.7266 24.9015 13.0276 31.8226 9.74404 39.532C6.34403 47.5149 4.62024 55.9913 4.62024 64.7282C4.62024 73.4652 6.34403 81.9415 9.74404 89.9245C13.0276 97.6322 17.7282 104.555 23.7131 110.499C29.6996 116.443 36.6702 121.109 44.433 124.369C52.473 127.745 61.0099 129.456 69.8093 129.456C78.6086 129.456 87.1456 127.745 95.1855 124.369C102.948 121.109 109.921 116.441 115.905 110.499C121.892 104.555 126.591 97.6338 129.875 89.9245C133.275 81.9415 134.998 73.4652 134.998 64.7282C134.998 55.9913 133.275 47.5133 129.875 39.532V39.532ZM128.133 64.7282C128.133 96.66 101.968 122.64 69.8076 122.64C37.6478 122.64 11.4826 96.6616 11.4826 64.7282C11.4826 32.7948 37.6478 6.81693 69.8093 6.81693C101.971 6.81693 128.134 32.7965 128.134 64.7282H128.133Z" fill="#20AEE4"/>
<path d="M15.4698 162.898H7.07885L5.73393 166.84H0L8.1351 144.515H14.4775L22.6126 166.84H16.8147L15.4698 162.898V162.898ZM14.0609 158.7L11.2743 150.526L8.52053 158.7H14.0609Z" fill="#1A2E46"/>
<path d="M40.3016 155.392C41.6039 155.667 42.6503 156.314 43.4408 157.332C44.2314 158.328 44.6266 159.473 44.6266 160.766C44.6266 162.632 43.964 164.116 42.6404 165.218C41.3382 166.3 39.5127 166.84 37.164 166.84H26.6901V144.515H36.8114C39.0961 144.515 40.8789 145.035 42.1599 146.074C43.4621 147.113 44.1133 148.523 44.1133 150.303C44.1133 151.617 43.7607 152.71 43.057 153.578C42.3731 154.448 41.4563 155.052 40.3032 155.39L40.3016 155.392ZM32.1665 153.547H35.7535C36.6506 153.547 37.3329 153.356 37.8037 152.974C38.2941 152.571 38.5401 151.988 38.5401 151.225C38.5401 150.461 38.2941 149.878 37.8037 149.476C37.3346 149.073 36.6506 148.872 35.7535 148.872H32.1665V153.547ZM36.2029 162.452C37.1214 162.452 37.825 162.25 38.317 161.847C38.8287 161.424 39.0862 160.82 39.0862 160.035C39.0862 159.25 38.8189 158.636 38.2859 158.19C37.7741 157.745 37.0574 157.522 36.1406 157.522H32.1698V162.452H36.2062H36.2029Z" fill="#1A2E46"/>
<path d="M63.3997 162.898H55.0087L53.6638 166.84H47.9315L56.0666 144.515H62.409L70.5441 166.84H64.7479L63.403 162.898H63.3997ZM61.9908 158.7L59.2042 150.526L56.4504 158.7H61.9908Z" fill="#1A2E46"/>
<path d="M94.7329 166.84H89.2565L80.0963 153.07V166.84H74.6199V144.515H80.0963L89.2565 158.349V144.515H94.7329V166.84Z" fill="#1A2E46"/>
<path d="M115.23 151.576C114.825 150.834 114.237 150.272 113.468 149.891C112.72 149.489 111.835 149.287 110.81 149.287C109.037 149.287 107.618 149.87 106.55 151.036C105.482 152.181 104.949 153.718 104.949 155.648C104.949 157.705 105.504 159.315 106.614 160.481C107.746 161.626 109.294 162.199 111.259 162.199C112.604 162.199 113.736 161.86 114.654 161.181C115.594 160.502 116.276 159.528 116.704 158.255H109.753V154.247H121.667V159.304C121.262 160.66 120.568 161.922 119.586 163.088C118.625 164.254 117.398 165.197 115.902 165.919C114.408 166.64 112.72 167 110.842 167C108.622 167 106.635 166.523 104.885 165.569C103.155 164.593 101.8 163.246 100.818 161.53C99.8567 159.812 99.3761 157.851 99.3761 155.646C99.3761 153.441 99.8567 151.48 100.818 149.762C101.8 148.023 103.157 146.678 104.885 145.724C106.616 144.748 108.59 144.261 110.811 144.261C113.501 144.261 115.764 144.908 117.601 146.201C119.46 147.494 120.686 149.285 121.285 151.575H115.231L115.23 151.576Z" fill="#1A2E46"/>
<path d="M131.779 144.517V166.842H126.302V144.517H131.779Z" fill="#1A2E46"/>
</svg>
